# xmcd CD database file
#
# Track frame offsets:
#	150
#	17084
#	40500
#	61033
#	80079
#	104426
#	125391
#	144696
#	164887
#	192788
#	203410
#	233591
#	245217
#	259004
#	272669
#	292912
#	310227
#	336299
#
# Disc length: 4704 seconds
#
# Revision: 0
# Processed by: cddbd v1.5.1PL2 Copyright (c) Steve Scherf et al.
# Submitted via: CDex 1.51
#
DISCID=01125e12
DTITLE=Caecilie Norby - First Conversation
DYEAR=2002
DGENRE=Jazz
TTITLE0=For Heavens Sake
TTITLE1=Leaving Town For The Weekend
TTITLE2=Never Let Me Go
TTITLE3=First Conversation
TTITLE4=Hallelujah
TTITLE5=Here's To Life
TTITLE6=AudioGentle On My Mind
TTITLE7=Kyrie II
TTITLE8=Midnight Sun
TTITLE9=You Must Believe In Spring
TTITLE10=Tea In The Sahara
TTITLE11=Only The Young
TTITLE12=The look Of love
TTITLE13=The Right To Love
TTITLE14=Set Them Free
TTITLE15=Suppertime
TTITLE16=African Fairytale
TTITLE17=Life On Mars
EXTD=YEAR: 2002
EXTT0=
EXTT1=
EXTT2=
EXTT3=
EXTT4=
EXTT5=
EXTT6=
EXTT7=
EXTT8=
EXTT9=
EXTT10=
EXTT11=
EXTT12=
EXTT13=
EXTT14=
EXTT15=
EXTT16=
EXTT17=
PLAYORDER=
